<?xml version="1.0" encoding="utf-8"?>
<svg class="svglite" width="124.44pt" height="144.00pt" viewBox="0 0 124.44 144.00" xmlns="http://www.w3.org/2000/svg">
  <defs>
    <style type="text/css">
    .svglite line, .svglite polyline, .svglite polygon, .svglite path, .svglite rect, .svglite circle {
      fill: none;
      stroke: #000000;
      stroke-linecap: round;
      stroke-linejoin: round;
      stroke-miterlimit: 10.00;
    }
  </style>
  </defs>
  <rect width="100%" height="100%" style="stroke: none; fill: none;"/>
  <defs>
    <clipPath id="cpMC4wMHwxMjQuNDR8MC4wMHwxNDQuMDA=">
      <rect x="0.00" y="0.00" width="124.44" height="144.00"/>
    </clipPath>
  </defs>
  <g clip-path="url(#cpMC4wMHwxMjQuNDR8MC4wMHwxNDQuMDA=)"/>
  <defs>
    <clipPath id="cpMC4wMHwxMjQuNDR8MC4xNHwxNDMuODY=">
      <rect x="0.00" y="0.14" width="124.44" height="143.71"/>
    </clipPath>
  </defs>
  <g clip-path="url(#cpMC4wMHwxMjQuNDR8MC4xNHwxNDMuODY=)">
    <rect x="0.00" y="0.14" width="124.44" height="143.71" style="stroke-width: 1.07; stroke: none;"/>
  </g>
  <g clip-path="url(#cpMC4wMHwxMjQuNDR8MC4wMHwxNDQuMDA=)"/>
  <defs>
    <clipPath id="cpMC4wMHwxMjQuNDR8MC4xNHwxNDQuMDA=">
      <rect x="0.00" y="0.14" width="124.44" height="143.85"/>
    </clipPath>
  </defs>
  <g clip-path="url(#cpMC4wMHwxMjQuNDR8MC4xNHwxNDQuMDA=)">
    <rect x="-0.14" y="0.14" width="124.58" height="143.85" style="stroke-width: 1.07; stroke: none;"/>
    <polygon points="1.08,36.81 1.08,107.33 62.15,142.59 123.22,107.33 123.22,36.81 62.15,1.55 1.08,36.81 " style="stroke-width: 4.27; stroke: none; fill: #000000;"/>
  </g>
  <g clip-path="url(#cpMC4wMHwxMjQuNDR8MC4wMHwxNDQuMDA=)">
    <rect x="-26.00" y="-12.75" width="176.29" height="169.65" style="stroke-width: 0.75; stroke: none;"/>
  </g>
  <g clip-path="url(#cpMC4wMHwxMjQuNDR8MC4xNHwxNDQuMDA=)"/>
  <g clip-path="url(#cpMC4wMHwxMjQuNDR8MC4wMHwxNDQuMDA=)">
    <rect x="-26.00" y="-12.75" width="176.29" height="169.65" style="stroke-width: 0.75; stroke: none;"/>
    <path d="M 107.6 34.06 L 104.67 34.29 L 101.74 35.03 L 99.78 35.84 L 98.81 36.29 L 95.88 37.58 L 92.95 37.16 L 90.02 37.98 L 88.69 38.74 L 87.08 39.5 L 84.39 41.64 L 84.15 41.81 L 81.22 44.31 L 80.97 44.54 L 78.77 47.45 L 78.29 49.08 L 77.47 50.35 L 75.36 52.47 L 74.4 53.25 L 72.43 54.7 L 71.59 56.15 L 71.32 59.05 L 71.86 61.96 L 71.23 64.86 L 70.39 67.76 L 69.5 69.69 L 69.09 70.66 L 68.7 73.57 L 69.5 75.19 L 69.91 76.47 L 71.08 79.37 L 72.43 81.6 L 72.72 82.27 L 73.42 85.18 L 74.25 88.08 L 75.36 89.78 L 76.15 90.98 L 77.1 93.88 L 77.24 96.78 L 78.29 98.41 L 80.74 99.69 L 81.22 99.85 L 81.84 99.69 L 84.15 99.38 L 87.08 99.64 L 87.17 99.69 L 90.01 102.59 L 90.02 102.6 L 92.95 104.54 L 94.92 105.49 L 95.88 106.07 L 98.81 108.12 L 99.21 108.39 L 101.74 109.87 L 104.67 109.36 L 107.07 108.39 L 107.6 108.2 L 110.53 107.88 L 113.47 107.49 L 116.4 107.5 L 119.33 106.32 L 120.14 105.49 L 122.26 103.97 L 122.26 40.36 L 120.06 38.74 L 119.33 38.01 L 117.6 35.84 L 116.4 34.73 L 113.47 33.84 L 110.53 34.03 L 107.6 34.06 Z M 109.65 41.64 L 110.53 41.74 L 113.15 44.54 L 113.47 44.82 L 116.4 46.46 L 117.89 47.45 L 119.33 47.97 L 122.26 50.07 L 122.62 50.35 L 122.26 93.53 L 121.34 93.88 L 119.33 94.65 L 116.4 95.76 L 113.47 96.56 L 112.33 96.78 L 110.53 97.4 L 107.6 98.31 L 104.67 99.03 L 101.74 98.6 L 98.81 97.19 L 98.06 96.78 L 95.88 95.92 L 92.95 94.9 L 90.7 93.88 L 90.02 93.52 L 87.08 92.56 L 84.15 91.31 L 83.88 90.98 L 81.77 88.08 L 81.22 87.15 L 80.4 85.18 L 80.09 82.27 L 80.23 79.37 L 80.56 76.47 L 81.07 73.57 L 81 70.66 L 80.4 67.76 L 80.13 64.86 L 80.86 61.96 L 81.22 61.3 L 82.43 59.05 L 83.78 56.15 L 84.15 55.28 L 85.34 53.25 L 87.08 50.35 L 90.02 48.77 L 92.95 48.49 L 95.88 48.44 L 98.81 47.62 L 99.08 47.45 L 101.74 45.05 L 102.34 44.54 L 104.67 42.46 L 107.19 41.64 L 107.6 41.49 L 109.65 41.64 Z" style="fill-rule: evenodd; fill: #66C2A5; fill-opacity: 0.30; stroke-width: 1.07; stroke: none;"/>
    <path d="M 107.6 41.49 L 107.19 41.64 L 104.67 42.46 L 102.34 44.54 L 101.74 45.05 L 99.08 47.45 L 98.81 47.62 L 95.88 48.44 L 92.95 48.49 L 90.02 48.77 L 87.08 50.35 L 85.34 53.25 L 84.15 55.28 L 83.78 56.15 L 82.43 59.05 L 81.22 61.3 L 80.86 61.96 L 80.13 64.86 L 80.4 67.76 L 81 70.66 L 81.07 73.57 L 80.56 76.47 L 80.23 79.37 L 80.09 82.27 L 80.4 85.18 L 81.22 87.15 L 81.77 88.08 L 83.88 90.98 L 84.15 91.31 L 87.08 92.56 L 90.02 93.52 L 90.7 93.88 L 92.95 94.9 L 95.88 95.92 L 98.06 96.78 L 98.81 97.19 L 101.74 98.6 L 104.67 99.03 L 107.6 98.31 L 110.53 97.4 L 112.33 96.78 L 113.47 96.56 L 116.4 95.76 L 119.33 94.65 L 121.34 93.88 L 122.26 93.53 L 122.62 50.35 L 122.26 50.07 L 119.33 47.97 L 117.89 47.45 L 116.4 46.46 L 113.47 44.82 L 113.15 44.54 L 110.53 41.74 L 109.65 41.64 L 107.6 41.49 Z M 113.47 54.78 L 115.23 56.15 L 116.4 57.12 L 117.52 59.05 L 119.33 61.71 L 119.49 61.96 L 120.88 64.86 L 121.34 67.76 L 121.97 70.66 L 122.26 72.04 L 122.69 73.57 L 122.27 76.47 L 122.26 76.48 L 120.81 79.37 L 119.33 81.52 L 118.6 82.27 L 117.12 85.18 L 116.4 86.16 L 114.28 88.08 L 113.47 88.45 L 110.53 88.68 L 107.6 88.09 L 104.67 88.08 L 101.74 88.16 L 101.42 88.08 L 98.81 87.42 L 95.88 85.4 L 95.69 85.18 L 92.95 82.52 L 92.58 82.27 L 90.02 80.48 L 88.55 79.37 L 87.08 77.4 L 86.7 76.47 L 86.73 73.57 L 87.08 70.9 L 87.14 70.66 L 88.73 67.76 L 90.02 66.25 L 91.13 64.86 L 91.84 61.96 L 92.08 59.05 L 92.95 58.33 L 95.23 56.15 L 95.88 55.81 L 98.81 54.35 L 101.74 53.75 L 104.67 53.55 L 107.6 53.75 L 110.53 53.81 L 113.47 54.78 Z" style="fill-rule: evenodd; fill: #66C2A5; fill-opacity: 0.65; stroke-width: 1.07; stroke: none;"/>
    <path d="M 113.47 54.78 L 110.53 53.81 L 107.60 53.75 L 104.67 53.55 L 101.74 53.75 L 98.81 54.35 L 95.88 55.81 L 95.23 56.15 L 92.95 58.33 L 92.08 59.05 L 91.84 61.96 L 91.13 64.86 L 90.02 66.25 L 88.73 67.76 L 87.14 70.66 L 87.08 70.90 L 86.73 73.57 L 86.70 76.47 L 87.08 77.40 L 88.55 79.37 L 90.02 80.48 L 92.58 82.27 L 92.95 82.52 L 95.69 85.18 L 95.88 85.40 L 98.81 87.42 L 101.42 88.08 L 101.74 88.16 L 104.67 88.08 L 107.60 88.09 L 110.53 88.68 L 113.47 88.45 L 114.28 88.08 L 116.40 86.16 L 117.12 85.18 L 118.60 82.27 L 119.33 81.52 L 120.81 79.37 L 122.26 76.48 L 122.27 76.47 L 122.69 73.57 L 122.26 72.04 L 121.97 70.66 L 121.34 67.76 L 120.88 64.86 L 119.49 61.96 L 119.33 61.71 L 117.52 59.05 L 116.40 57.12 L 115.23 56.15 Z" style="fill-rule: evenodd; fill: #66C2A5; stroke-width: 1.07; stroke: none;"/>
    <path d="M 117.68 32.93 L 64.7 3.91 L 63.63 4.44 L 60.7 5.83 L 59.14 6.81 L 57.77 8.04 L 56.68 9.72 L 54.97 12.62 L 54.84 12.85 L 51.91 14.63 L 50.23 15.52 L 48.98 16.57 L 47.93 18.42 L 47.18 21.32 L 46.71 24.23 L 46.17 27.13 L 46.05 30.03 L 46.05 30.37 L 45.98 32.93 L 45.19 35.84 L 45.08 38.74 L 46.05 40.18 L 46.89 41.64 L 48.98 44.12 L 49.31 44.54 L 51.28 47.45 L 51.91 48.05 L 53.94 50.35 L 54.72 53.25 L 53.72 56.15 L 54.84 57.81 L 56.12 59.05 L 57.77 59.96 L 60.7 61.86 L 60.78 61.96 L 63.63 64.54 L 64.09 64.86 L 66.57 65.96 L 69.5 66.72 L 72.43 67.32 L 73.9 67.76 L 75.36 68.87 L 78.29 69.95 L 81.22 70.17 L 84.15 70.4 L 87.08 69.25 L 88.77 67.76 L 90.02 67.31 L 92.95 67.37 L 95.88 67.76 L 98.81 66.74 L 100.65 64.86 L 101.74 63.12 L 102.68 61.96 L 104.67 60.94 L 107.6 59.58 L 108.34 59.05 L 110.53 57.25 L 111.49 56.15 L 113.47 53.83 L 113.98 53.25 L 115.78 50.35 L 116.4 48.37 L 116.75 47.45 L 117.48 44.54 L 118.28 41.64 L 118.93 38.74 L 118.9 35.84 L 117.68 32.93 Z M 72.43 9.19 L 110.24 30.03 L 110.31 32.93 L 110.53 35.02 L 110.63 35.84 L 110.53 36.2 L 109.96 38.74 L 109.73 41.64 L 109.48 44.54 L 107.76 47.45 L 107.6 47.62 L 105.31 50.35 L 104.67 51.71 L 103.82 53.25 L 101.74 54.92 L 98.81 56.15 L 95.88 57.3 L 92.95 58.15 L 90.02 58.56 L 87.08 58.63 L 84.15 58.62 L 81.22 58.75 L 78.29 58.65 L 75.36 58.96 L 74.74 59.05 L 72.43 59.57 L 71.01 59.05 L 69.5 58.54 L 66.87 56.15 L 66.57 55.93 L 63.67 53.25 L 63.63 53.19 L 61.82 50.35 L 60.7 48.09 L 60.3 47.45 L 58.53 44.54 L 58.21 41.64 L 58.34 38.74 L 58.15 35.84 L 57.77 34.41 L 57.27 32.93 L 56 30.03 L 57.23 27.13 L 57.77 26.85 L 60.7 24.35 L 60.83 24.23 L 62.67 21.32 L 62.87 18.42 L 63.63 17.21 L 65.01 15.52 L 66.57 14.4 L 69.32 12.62 L 69.5 12.44 L 71.74 9.72 L 72.43 9.19 Z" style="fill-rule: evenodd; fill: #FC8D62; fill-opacity: 0.30; stroke-width: 1.07; stroke: none;"/>
    <path d="M 110.24 30.03 L 72.43 9.19 L 71.74 9.72 L 69.5 12.44 L 69.32 12.62 L 66.57 14.4 L 65.01 15.52 L 63.63 17.21 L 62.87 18.42 L 62.67 21.32 L 60.83 24.23 L 60.7 24.35 L 57.77 26.85 L 57.23 27.13 L 56 30.03 L 57.27 32.93 L 57.77 34.41 L 58.15 35.84 L 58.34 38.74 L 58.21 41.64 L 58.53 44.54 L 60.3 47.45 L 60.7 48.09 L 61.82 50.35 L 63.63 53.19 L 63.67 53.25 L 66.57 55.93 L 66.87 56.15 L 69.5 58.54 L 71.01 59.05 L 72.43 59.57 L 74.74 59.05 L 75.36 58.96 L 78.29 58.65 L 81.22 58.75 L 84.15 58.62 L 87.08 58.63 L 90.02 58.56 L 92.95 58.15 L 95.88 57.3 L 98.81 56.15 L 101.74 54.92 L 103.82 53.25 L 104.67 51.71 L 105.31 50.35 L 107.6 47.62 L 107.76 47.45 L 109.48 44.54 L 109.73 41.64 L 109.96 38.74 L 110.53 36.2 L 110.63 35.84 L 110.53 35.02 L 110.31 32.93 L 110.24 30.03 Z M 81.22 15.51 L 81.44 15.52 L 84.15 15.66 L 87.08 16.18 L 90.02 18.03 L 90.46 18.42 L 92.95 20.61 L 93.86 21.32 L 95.88 22.98 L 97.34 24.23 L 98.81 26 L 99.91 27.13 L 101.19 30.03 L 100.9 32.93 L 101.22 35.84 L 101.74 38.53 L 101.78 38.74 L 101.74 38.86 L 100.26 41.64 L 98.81 43.12 L 97.54 44.54 L 95.88 47.26 L 95.76 47.45 L 92.95 49.61 L 90.02 50.22 L 88.59 50.35 L 87.08 50.48 L 84.15 50.49 L 81.22 50.45 L 78.29 50.46 L 75.36 50.35 L 72.43 49.02 L 71.42 47.45 L 69.77 44.54 L 69.5 43.89 L 68.44 41.64 L 68.38 38.74 L 68.47 35.84 L 67.51 32.93 L 67.92 30.03 L 69.5 28.04 L 70.04 27.13 L 71.46 24.23 L 72.43 22.65 L 73.52 21.32 L 75.36 19.39 L 76.13 18.42 L 78.29 15.76 L 81.02 15.52 L 81.22 15.51 Z" style="fill-rule: evenodd; fill: #FC8D62; fill-opacity: 0.65; stroke-width: 1.07; stroke: none;"/>
    <path d="M 81.22 15.51 L 81.02 15.52 L 78.29 15.76 L 76.13 18.42 L 75.36 19.39 L 73.52 21.32 L 72.43 22.65 L 71.46 24.23 L 70.04 27.13 L 69.50 28.04 L 67.92 30.03 L 67.51 32.93 L 68.47 35.84 L 68.38 38.74 L 68.44 41.64 L 69.50 43.89 L 69.77 44.54 L 71.42 47.45 L 72.43 49.02 L 75.36 50.35 L 75.36 50.35 L 78.29 50.46 L 81.22 50.45 L 84.15 50.49 L 87.08 50.48 L 88.59 50.35 L 90.02 50.22 L 92.95 49.61 L 95.76 47.45 L 95.88 47.26 L 97.54 44.54 L 98.81 43.12 L 100.26 41.64 L 101.74 38.86 L 101.78 38.74 L 101.74 38.53 L 101.22 35.84 L 100.90 32.93 L 101.19 30.03 L 99.91 27.13 L 98.81 26.00 L 97.34 24.23 L 95.88 22.98 L 93.86 21.32 L 92.95 20.61 L 90.46 18.42 L 90.02 18.03 L 87.08 16.18 L 84.15 15.66 L 81.44 15.52 Z" style="fill-rule: evenodd; fill: #FC8D62; stroke-width: 1.07; stroke: none;"/>
    <path d="M 57.77 1.81 L 2.5 35.84 L 2.47 38.74 L 2.3 41.64 L 3.11 44.54 L 5.01 46.75 L 5.95 47.45 L 7.94 49.36 L 8.86 50.35 L 10.86 53.25 L 10.87 53.26 L 12.28 56.15 L 13.8 59.01 L 13.84 59.05 L 16.12 61.96 L 16.73 62.46 L 19.66 64.39 L 20.21 64.86 L 22.6 66.27 L 25.53 66.98 L 28.46 67.1 L 31.39 67.24 L 34.32 67.56 L 35.02 67.76 L 37.25 68.91 L 40.18 69.9 L 43.11 69.33 L 46.05 68.4 L 48.98 68.03 L 51.91 68.02 L 54.84 67.99 L 56.87 67.76 L 57.77 67.66 L 60.7 64.86 L 62.55 61.96 L 63.63 60.73 L 65.41 59.05 L 66.57 56.88 L 66.95 56.15 L 67.85 53.25 L 69.02 50.35 L 69.5 49.89 L 72.43 48.67 L 74.24 47.45 L 75.29 44.54 L 74.74 41.64 L 74.05 38.74 L 74.57 35.84 L 75.36 34.77 L 78.24 32.93 L 78.29 32.74 L 78.76 30.03 L 78.29 27.51 L 78.22 27.13 L 77.09 24.23 L 76.63 21.32 L 75.36 20.02 L 74.34 18.42 L 72.82 15.52 L 72.43 15.04 L 70.69 12.62 L 69.5 11.51 L 68.14 9.72 L 66.76 6.81 L 66.57 6.61 L 63.63 5.38 L 60.7 3.97 L 60.62 3.91 L 57.77 1.81 Z M 10.96 30.03 L 48.98 8.77 L 51.91 9.3 L 54.27 9.72 L 54.84 9.82 L 57.77 12.13 L 58.27 12.62 L 60.7 14.65 L 61.97 15.52 L 63.63 17.86 L 63.93 18.42 L 64.43 21.32 L 65.12 24.23 L 66.14 27.13 L 66.57 28.15 L 67.56 30.03 L 67.49 32.93 L 66.68 35.84 L 66.57 36.26 L 65.75 38.74 L 65.03 41.64 L 64.95 44.54 L 63.86 47.45 L 63.63 47.82 L 61.97 50.35 L 60.7 52.19 L 58.92 53.25 L 57.77 54.19 L 56.04 56.15 L 54.84 57.14 L 51.91 58.86 L 51.46 59.05 L 48.98 60.12 L 46.05 60.56 L 43.11 60.41 L 40.18 60.52 L 37.25 60.71 L 34.32 59.89 L 32.84 59.05 L 31.39 58.31 L 28.46 56.79 L 27.71 56.15 L 25.53 54.83 L 23.15 53.25 L 22.6 52.93 L 19.66 50.98 L 19.01 50.35 L 16.83 47.45 L 16.73 47.29 L 15.25 44.54 L 14.49 41.64 L 13.96 38.74 L 13.8 38.23 L 12.72 35.84 L 10.87 33.01 L 10.82 32.93 L 10.87 31.56 L 10.96 30.03 Z" style="fill-rule: evenodd; fill: #8DA0CB; fill-opacity: 0.30; stroke-width: 1.07; stroke: none;"/>
    <path d="M 48.98 8.77 L 14.39 27.13 L 13.8 27.66 L 10.96 30.03 L 10.87 31.56 L 10.82 32.93 L 10.87 33.01 L 12.72 35.84 L 13.8 38.23 L 13.96 38.74 L 14.49 41.64 L 15.25 44.54 L 16.73 47.29 L 16.83 47.45 L 19.01 50.35 L 19.66 50.98 L 22.6 52.93 L 23.15 53.25 L 25.53 54.83 L 27.71 56.15 L 28.46 56.79 L 31.39 58.31 L 32.84 59.05 L 34.32 59.89 L 37.25 60.71 L 40.18 60.52 L 43.11 60.41 L 46.05 60.56 L 48.98 60.12 L 51.46 59.05 L 51.91 58.86 L 54.84 57.14 L 56.04 56.15 L 57.77 54.19 L 58.92 53.25 L 60.7 52.19 L 61.97 50.35 L 63.63 47.82 L 63.86 47.45 L 64.95 44.54 L 65.03 41.64 L 65.75 38.74 L 66.57 36.26 L 66.68 35.84 L 67.49 32.93 L 67.56 30.03 L 66.57 28.15 L 66.14 27.13 L 65.12 24.23 L 64.43 21.32 L 63.93 18.42 L 63.63 17.86 L 61.97 15.52 L 60.7 14.65 L 58.27 12.62 L 57.77 12.13 L 54.84 9.82 L 54.27 9.72 L 51.91 9.3 L 48.98 8.77 Z M 48.98 17.77 L 50.05 18.42 L 51.91 19.69 L 54.07 21.32 L 54.84 21.77 L 57.5 24.23 L 57.77 24.92 L 58.52 27.13 L 58.4 30.03 L 58.33 32.93 L 57.8 35.84 L 57.77 35.91 L 56.72 38.74 L 54.84 41.64 L 51.91 44.07 L 51.08 44.54 L 48.98 46.7 L 48.15 47.45 L 46.05 48.83 L 43.11 49.7 L 40.18 50.3 L 37.25 50.26 L 34.32 49.71 L 31.39 48.91 L 29.45 47.45 L 28.46 45.63 L 28.05 44.54 L 26.59 41.64 L 25.53 40.26 L 22.94 38.74 L 22.6 38.51 L 21.16 35.84 L 21.09 32.93 L 21.63 30.03 L 22.6 27.14 L 22.6 27.13 L 23.92 24.23 L 25.53 21.85 L 26.02 21.32 L 28.46 19.06 L 30.47 18.42 L 31.39 18.16 L 34.32 17.17 L 37.25 16.44 L 40.18 16.4 L 43.11 16.68 L 46.05 16.99 L 48.98 17.77 Z" style="fill-rule: evenodd; fill: #8DA0CB; fill-opacity: 0.65; stroke-width: 1.07; stroke: none;"/>
    <path d="M 48.98 17.77 L 46.05 16.99 L 43.11 16.68 L 40.18 16.40 L 37.25 16.44 L 34.32 17.17 L 31.39 18.16 L 30.47 18.42 L 28.46 19.06 L 26.02 21.32 L 25.53 21.85 L 23.92 24.23 L 22.60 27.13 L 22.60 27.14 L 21.63 30.03 L 21.09 32.93 L 21.16 35.84 L 22.60 38.51 L 22.94 38.74 L 25.53 40.26 L 26.59 41.64 L 28.05 44.54 L 28.46 45.63 L 29.45 47.45 L 31.39 48.91 L 34.32 49.71 L 37.25 50.26 L 40.18 50.30 L 43.11 49.70 L 46.05 48.83 L 48.15 47.45 L 48.98 46.70 L 51.08 44.54 L 51.91 44.07 L 54.84 41.64 L 54.84 41.64 L 56.72 38.74 L 57.77 35.91 L 57.80 35.84 L 58.33 32.93 L 58.40 30.03 L 58.52 27.13 L 57.77 24.92 L 57.50 24.23 L 54.84 21.77 L 54.07 21.32 L 51.91 19.69 L 50.05 18.42 Z" style="fill-rule: evenodd; fill: #8DA0CB; stroke-width: 1.07; stroke: none;"/>
    <path d="M 16.73 33.67 L 13.8 34.04 L 10.87 34.9 L 8.76 35.84 L 7.94 36.12 L 5.01 37.22 L 2.1 38.74 L 2.08 38.75 L 0.75 102.59 L 2.08 103.46 L 4.6 105.49 L 5.01 105.74 L 7.94 106.53 L 10.87 106.34 L 13.52 105.49 L 13.8 105.44 L 16.73 105.49 L 19.66 106.58 L 22.6 106.62 L 25.53 106.15 L 28.46 106.8 L 31.39 105.67 L 31.58 105.49 L 34.32 103.61 L 35.82 102.59 L 37.25 102.08 L 40.18 101.18 L 42.66 99.69 L 43.11 99.04 L 45.52 96.78 L 46.05 96.19 L 47.54 93.88 L 48.98 91.23 L 49.07 90.98 L 50.15 88.08 L 51.91 85.51 L 52.15 85.18 L 53.43 82.27 L 53.03 79.37 L 53.2 76.47 L 54.56 73.57 L 54.84 72.02 L 55.08 70.66 L 55.73 67.76 L 55.82 64.86 L 54.84 62.98 L 54.44 61.96 L 52.98 59.05 L 51.91 57.02 L 51.45 56.15 L 49.94 53.25 L 48.98 51.65 L 48.3 50.35 L 46.62 47.45 L 46.05 47 L 43.11 45.06 L 41.57 44.54 L 40.18 43.83 L 37.25 42.04 L 36.43 41.64 L 34.32 40.03 L 32.18 38.74 L 31.39 38.32 L 28.46 37.27 L 25.53 36.95 L 23.28 35.84 L 22.6 35.46 L 19.66 33.99 L 16.73 33.67 Z M 16.73 43.84 L 19.14 44.54 L 19.66 44.62 L 22.6 44.81 L 25.53 44.61 L 28.46 45.27 L 31.27 47.45 L 31.39 47.56 L 34.32 49.43 L 37.25 50.21 L 37.48 50.35 L 40.18 53.25 L 41.24 56.15 L 41.87 59.05 L 42.12 61.96 L 42.42 64.86 L 42.92 67.76 L 43.11 68.81 L 43.9 70.66 L 45.06 73.57 L 44.79 76.47 L 44.41 79.37 L 43.39 82.27 L 43.11 82.63 L 41.68 85.18 L 40.18 87.16 L 39.5 88.08 L 37.68 90.98 L 37.25 91.7 L 35.55 93.88 L 34.32 94.86 L 31.39 95.35 L 28.46 95.79 L 25.53 96.21 L 22.6 96.43 L 21.44 96.78 L 19.66 97.68 L 16.73 98.44 L 13.8 98.93 L 10.87 98.94 L 8.65 96.78 L 7.94 95.95 L 6.02 93.88 L 5.01 93.37 L 2.08 92.86 L 0.48 53.25 L 2.08 51.55 L 3.2 50.35 L 5.01 48.19 L 5.57 47.45 L 7.87 44.54 L 7.94 44.49 L 10.87 43.13 L 13.8 43.39 L 16.73 43.84 Z" style="fill-rule: evenodd; fill: #E78AC3; fill-opacity: 0.30; stroke-width: 1.07; stroke: none;"/>
    <path d="M 7.94 44.49 L 7.87 44.54 L 5.57 47.45 L 5.01 48.19 L 3.2 50.35 L 2.08 51.55 L 0.48 53.25 L 2.08 92.86 L 5.01 93.37 L 6.02 93.88 L 7.94 95.95 L 8.65 96.78 L 10.87 98.94 L 13.8 98.93 L 16.73 98.44 L 19.66 97.68 L 21.44 96.78 L 22.6 96.43 L 25.53 96.21 L 28.46 95.79 L 31.39 95.35 L 34.32 94.86 L 35.55 93.88 L 37.25 91.7 L 37.68 90.98 L 39.5 88.08 L 40.18 87.16 L 41.68 85.18 L 43.11 82.63 L 43.39 82.27 L 44.41 79.37 L 44.79 76.47 L 45.06 73.57 L 43.9 70.66 L 43.11 68.81 L 42.92 67.76 L 42.42 64.86 L 42.12 61.96 L 41.87 59.05 L 41.24 56.15 L 40.18 53.25 L 37.48 50.35 L 37.25 50.21 L 34.32 49.43 L 31.39 47.56 L 31.27 47.45 L 28.46 45.27 L 25.53 44.61 L 22.6 44.81 L 19.66 44.62 L 19.14 44.54 L 16.73 43.84 L 13.8 43.39 L 10.87 43.13 L 7.94 44.49 Z M 25.53 55.91 L 25.96 56.15 L 28.46 57.57 L 30.69 59.05 L 31.39 59.56 L 34.32 61.59 L 34.62 61.96 L 35.74 64.86 L 35.94 67.76 L 35.29 70.66 L 34.91 73.57 L 34.95 76.47 L 34.32 79 L 34.16 79.37 L 31.39 81.99 L 30.97 82.27 L 28.46 84.65 L 27.97 85.18 L 25.53 86.89 L 22.6 87.94 L 21.67 88.08 L 19.66 88.34 L 16.73 88.25 L 15.26 88.08 L 13.8 87.93 L 10.87 87.13 L 7.94 85.48 L 7.56 85.18 L 5.01 82.51 L 4.83 82.27 L 2.08 79.37 L 0.56 67.76 L 2.08 65.45 L 2.45 64.86 L 4.38 61.96 L 5.01 61.05 L 7.18 59.05 L 7.94 58.23 L 10.1 56.15 L 10.87 55.43 L 13.8 54.03 L 16.73 54.23 L 19.66 55.23 L 22.6 55.53 L 25.53 55.91 Z" style="fill-rule: evenodd; fill: #E78AC3; fill-opacity: 0.65; stroke-width: 1.07; stroke: none;"/>
    <path d="M 25.53 55.91 L 22.6 55.53 L 19.66 55.23 L 16.73 54.23 L 13.8 54.03 L 10.87 55.43 L 10.1 56.15 L 7.94 58.23 L 7.18 59.05 L 5.01 61.05 L 4.38 61.96 L 2.45 64.86 L 2.08 65.45 L 0.56 67.76 L 2.08 79.37 L 4.83 82.27 L 5.01 82.51 L 7.56 85.18 L 7.94 85.48 L 10.87 87.13 L 13.8 87.93 L 15.26 88.08 L 16.73 88.25 L 19.66 88.34 L 21.67 88.08 L 22.6 87.94 L 25.53 86.89 L 27.97 85.18 L 28.46 84.65 L 30.97 82.27 L 31.39 81.99 L 34.16 79.37 L 34.32 79 L 34.95 76.47 L 34.91 73.57 L 35.29 70.66 L 35.94 67.76 L 35.74 64.86 L 34.62 61.96 L 34.32 61.59 L 31.39 59.56 L 30.69 59.05 L 28.46 57.57 L 25.96 56.15 L 25.53 55.91 Z" style="fill-rule: evenodd; fill: #E78AC3; stroke-width: 1.07; stroke: none;"/>
    <path d="M 37.25 70.41 L 34.32 70.2 L 31.39 70.45 L 30 70.66 L 28.46 70.92 L 25.8 73.57 L 25.53 75.79 L 25.45 76.47 L 22.6 78.9 L 21.82 79.37 L 19.66 80.26 L 16.73 82.22 L 16.64 82.27 L 13.8 83.86 L 12.24 85.18 L 10.87 86.3 L 9.7 88.08 L 8.56 90.98 L 7.94 93.34 L 7.77 93.88 L 5.8 96.78 L 5.01 98.37 L 3.96 99.69 L 3.58 102.59 L 4.12 105.49 L 3.59 108.39 L 55.48 140.32 L 57.77 139.24 L 60.7 137.77 L 61.44 137.42 L 63.63 136.44 L 65.78 134.51 L 66.57 133.82 L 69.07 131.61 L 69.5 131.2 L 71.63 128.71 L 72.43 126.93 L 72.92 125.81 L 73.84 122.91 L 74.84 120 L 75.36 118.53 L 76.03 117.1 L 77.02 114.2 L 77.76 111.3 L 77.47 108.39 L 76.84 105.49 L 76.77 102.59 L 75.52 99.69 L 75.36 99.39 L 74.58 96.78 L 73.6 93.88 L 72.43 91.9 L 71.87 90.98 L 69.5 88.24 L 69.33 88.08 L 66.88 85.18 L 66.57 84.79 L 64.63 82.27 L 63.63 81.15 L 61.36 79.37 L 60.7 78.99 L 57.77 77.27 L 55.57 76.47 L 54.84 75.85 L 52.19 73.57 L 51.91 73.3 L 48.98 71.37 L 46.05 70.77 L 43.11 70.92 L 40.18 71.02 L 38.28 70.66 L 37.25 70.41 Z M 43.11 82.39 L 46.05 83.2 L 48.98 84.32 L 51.91 85.17 L 51.94 85.18 L 54.84 86.3 L 57.07 88.08 L 57.77 88.7 L 60.17 90.98 L 60.7 91.55 L 63.37 93.88 L 63.63 94.23 L 65.59 96.78 L 66.57 98.47 L 67 99.69 L 67.26 102.59 L 66.9 105.49 L 66.57 108.02 L 66.52 108.39 L 66.57 108.92 L 67.32 111.3 L 66.81 114.2 L 66.57 114.89 L 66.18 117.1 L 65.66 120 L 64.48 122.91 L 63.63 124.22 L 62.61 125.81 L 60.7 128.25 L 60.4 128.71 L 57.83 131.61 L 57.77 131.67 L 54.84 133.47 L 51.91 133.76 L 48.98 133.58 L 46.29 134.51 L 46.05 134.61 L 13.36 114.2 L 13.46 111.3 L 13.8 109.6 L 14.02 108.39 L 14.55 105.49 L 14.64 102.59 L 14.12 99.69 L 15.76 96.78 L 16.73 96.04 L 18.72 93.88 L 19.66 92.77 L 20.92 90.98 L 22.6 88.87 L 23.63 88.08 L 25.53 86.86 L 27.73 85.18 L 28.46 84.72 L 31.39 83.74 L 34.32 84.14 L 37.25 84 L 40.18 82.87 L 43.11 82.39 Z" style="fill-rule: evenodd; fill: #A6D854; fill-opacity: 0.30; stroke-width: 1.07; stroke: none;"/>
    <path d="M 46.05 83.2 L 43.11 82.39 L 40.18 82.87 L 37.25 84 L 34.32 84.14 L 31.39 83.74 L 28.46 84.72 L 27.73 85.18 L 25.53 86.86 L 23.63 88.08 L 22.6 88.87 L 20.92 90.98 L 19.66 92.77 L 18.72 93.88 L 16.73 96.04 L 15.76 96.78 L 14.12 99.69 L 14.64 102.59 L 14.55 105.49 L 14.02 108.39 L 13.8 109.6 L 13.46 111.3 L 13.36 114.2 L 48.98 133.58 L 51.91 133.76 L 54.84 133.47 L 57.77 131.67 L 57.83 131.61 L 60.4 128.71 L 60.7 128.25 L 62.61 125.81 L 63.63 124.22 L 64.48 122.91 L 65.66 120 L 66.18 117.1 L 66.57 114.89 L 66.81 114.2 L 67.32 111.3 L 66.57 108.92 L 66.52 108.39 L 66.57 108.02 L 66.9 105.49 L 67.26 102.59 L 67 99.69 L 66.57 98.47 L 65.59 96.78 L 63.63 94.23 L 63.37 93.88 L 60.7 91.55 L 60.17 90.98 L 57.77 88.7 L 57.07 88.08 L 54.84 86.3 L 51.94 85.18 L 51.91 85.17 L 48.98 84.32 L 46.05 83.2 Z M 46.05 92.61 L 47.79 93.88 L 48.98 94.66 L 51.91 96.09 L 52.95 96.78 L 54.84 98.45 L 55.58 99.69 L 56.39 102.59 L 56.78 105.49 L 57 108.39 L 57.77 110.56 L 57.98 111.3 L 58.24 114.2 L 57.77 116.21 L 57.52 117.1 L 54.94 120 L 54.84 120.11 L 51.91 122.45 L 51.13 122.91 L 48.98 124.32 L 46.67 125.81 L 46.05 126.14 L 43.11 126.25 L 41.53 125.81 L 40.18 125.49 L 37.25 125.23 L 34.32 125.25 L 31.39 124.86 L 28.46 123.48 L 27.73 122.91 L 25.53 121.01 L 24.82 120 L 23.42 117.1 L 22.6 114.2 L 22.11 111.3 L 21.79 108.39 L 21.93 105.49 L 22.6 104.11 L 23.31 102.59 L 24.58 99.69 L 25.53 97.42 L 26.34 96.78 L 28.46 95.99 L 31.39 95.23 L 33.74 93.88 L 34.32 93.47 L 37.25 92.34 L 40.18 91.88 L 43.11 91.8 L 46.05 92.61 Z" style="fill-rule: evenodd; fill: #A6D854; fill-opacity: 0.65; stroke-width: 1.07; stroke: none;"/>
    <path d="M 46.05 92.61 L 43.11 91.80 L 40.18 91.88 L 37.25 92.34 L 34.32 93.47 L 33.74 93.88 L 31.39 95.23 L 28.46 95.99 L 26.34 96.78 L 25.53 97.42 L 24.58 99.69 L 23.31 102.59 L 22.60 104.11 L 21.93 105.49 L 21.79 108.39 L 22.11 111.30 L 22.60 114.20 L 22.60 114.20 L 23.42 117.10 L 24.82 120.00 L 25.53 121.01 L 27.73 122.91 L 28.46 123.48 L 31.39 124.86 L 34.32 125.25 L 37.25 125.23 L 40.18 125.49 L 41.53 125.81 L 43.11 126.25 L 46.05 126.14 L 46.67 125.81 L 48.98 124.32 L 51.13 122.91 L 51.91 122.45 L 54.84 120.11 L 54.94 120.00 L 57.52 117.10 L 57.77 116.21 L 58.24 114.20 L 57.98 111.30 L 57.77 110.56 L 57.00 108.39 L 56.78 105.49 L 56.39 102.59 L 55.58 99.69 L 54.84 98.45 L 52.95 96.78 L 51.91 96.09 L 48.98 94.66 L 47.79 93.88 Z" style="fill-rule: evenodd; fill: #A6D854; stroke-width: 1.07; stroke: none;"/>
    <path d="M 87.08 74.66 L 84.15 73.92 L 83.65 73.57 L 81.22 71.94 L 78.29 71.6 L 75.36 73.18 L 74.64 73.57 L 72.43 74.57 L 69.5 75.73 L 68.13 76.47 L 66.57 77.81 L 65.7 79.37 L 64.14 82.27 L 63.63 82.66 L 60.7 84.05 L 59.27 85.18 L 57.77 87.89 L 57.65 88.08 L 54.84 90.32 L 54.22 90.98 L 52.65 93.88 L 51.91 96.5 L 51.76 96.78 L 48.98 99.5 L 48.64 99.69 L 48.51 102.59 L 48.98 103.56 L 49.34 105.49 L 49.37 108.39 L 49.44 111.3 L 49.4 114.2 L 48.98 115.58 L 48.1 117.1 L 48.82 120 L 48.98 120.23 L 50.1 122.91 L 51.16 125.81 L 51.91 127.57 L 52.31 128.71 L 54.84 131.57 L 54.93 131.61 L 57.77 132.78 L 60.7 134.37 L 60.84 134.51 L 62.41 137.42 L 63.63 138.66 L 65.32 140.32 L 66.57 141.33 L 119.33 111.3 L 118.26 108.39 L 119.01 105.49 L 119.33 103.97 L 119.77 102.59 L 119.83 99.69 L 119.33 98.5 L 118.74 96.78 L 116.74 93.88 L 116.4 93.52 L 114.13 90.98 L 113.47 90.21 L 111.69 88.08 L 110.53 86.73 L 109.04 85.18 L 107.6 84.02 L 105.28 82.27 L 104.67 81.66 L 102 79.37 L 101.74 79.12 L 98.81 77.14 L 97.09 76.47 L 95.88 75.68 L 92.95 74.03 L 90.02 73.97 L 87.08 74.66 Z M 92.95 84.75 L 93.88 85.18 L 95.88 86.17 L 98.81 86.89 L 101.13 88.08 L 101.74 88.37 L 104.67 90.98 L 104.74 93.88 L 105.69 96.78 L 107.6 99.59 L 107.68 99.69 L 109.01 102.59 L 110.16 105.49 L 110.53 107.79 L 110.61 108.39 L 110.53 108.88 L 110.18 111.3 L 109.32 114.2 L 108.83 117.1 L 75.36 136.16 L 72.43 135.85 L 70.85 134.51 L 69.5 132.56 L 68.8 131.61 L 66.57 129.25 L 65.47 128.71 L 63.63 126.83 L 63.17 125.81 L 62.76 122.91 L 61.46 120 L 60.85 117.1 L 60.7 115.41 L 60.49 114.2 L 58.59 111.3 L 57.77 109.7 L 57.04 108.39 L 56.2 105.49 L 56.91 102.59 L 57.77 101.23 L 58.7 99.69 L 60.05 96.78 L 60.7 96 L 62.18 93.88 L 63.63 92.02 L 65.06 90.98 L 66.57 90.04 L 69.5 89.06 L 71.8 88.08 L 72.43 87.63 L 75.36 85.8 L 77.27 85.18 L 78.29 84.79 L 81.22 84.25 L 84.15 83.7 L 87.08 83.28 L 90.02 83.39 L 92.95 84.75 Z" style="fill-rule: evenodd; fill: #FFD92F; fill-opacity: 0.30; stroke-width: 1.07; stroke: none;"/>
    <path d="M 92.95 84.75 L 90.02 83.39 L 87.08 83.28 L 84.15 83.7 L 81.22 84.25 L 78.29 84.79 L 77.27 85.18 L 75.36 85.8 L 72.43 87.63 L 71.8 88.08 L 69.5 89.06 L 66.57 90.04 L 65.06 90.98 L 63.63 92.02 L 62.18 93.88 L 60.7 96 L 60.05 96.78 L 58.7 99.69 L 57.77 101.23 L 56.91 102.59 L 56.2 105.49 L 57.04 108.39 L 57.77 109.7 L 58.59 111.3 L 60.49 114.2 L 60.7 115.41 L 60.85 117.1 L 61.46 120 L 62.76 122.91 L 63.17 125.81 L 63.63 126.83 L 65.47 128.71 L 66.57 129.25 L 68.8 131.61 L 69.5 132.56 L 70.85 134.51 L 72.43 135.85 L 109.32 114.2 L 110.18 111.3 L 110.53 108.88 L 110.61 108.39 L 110.53 107.79 L 110.16 105.49 L 109.01 102.59 L 107.68 99.69 L 107.6 99.59 L 105.69 96.78 L 104.74 93.88 L 104.67 90.98 L 101.74 88.37 L 101.13 88.08 L 98.81 86.89 L 95.88 86.17 L 93.88 85.18 L 92.95 84.75 Z M 87.08 90.64 L 87.87 90.98 L 90.02 92.66 L 91.13 93.88 L 92.45 96.78 L 92.95 97.23 L 95.36 99.69 L 95.88 100.09 L 98.75 102.59 L 98.81 102.68 L 100.13 105.49 L 100.03 108.39 L 99.24 111.3 L 98.81 112.68 L 98.41 114.2 L 98.07 117.1 L 97.6 120 L 96.67 122.301 L 90.86 125.81 L 90.02 125.93 L 87.08 125.91 L 84.15 125.81 L 81.22 125.71 L 80.2 125.81 L 78.29 126.07 L 75.36 126.01 L 75.1 125.81 L 72.52 122.91 L 72.43 122.74 L 70.54 120 L 69.5 118.92 L 68.08 117.1 L 66.6 114.2 L 66.57 114.06 L 66.01 111.3 L 65.7 108.39 L 65.84 105.49 L 66.57 103.19 L 66.76 102.59 L 67.75 99.69 L 69.14 96.78 L 69.5 96.52 L 72.43 95.63 L 75.36 94.77 L 76.92 93.88 L 78.29 92.85 L 81.22 91 L 81.28 90.98 L 84.15 90.41 L 87.08 90.64 Z" style="fill-rule: evenodd; fill: #FFD92F; fill-opacity: 0.65; stroke-width: 1.07; stroke: none;"/>
    <path d="M 87.08 90.64 L 84.15 90.41 L 81.28 90.98 L 81.22 91.00 L 78.29 92.85 L 76.92 93.88 L 75.36 94.77 L 72.43 95.63 L 69.50 96.52 L 69.14 96.78 L 67.75 99.69 L 66.76 102.59 L 66.57 103.19 L 65.84 105.49 L 65.70 108.39 L 66.01 111.30 L 66.57 114.06 L 66.60 114.20 L 68.08 117.10 L 69.50 118.92 L 70.54 120.00 L 72.43 122.74 L 72.52 122.91 L 75.10 125.81 L 75.36 126.01 L 78.29 126.07 L 80.20 125.81 L 81.22 125.71 L 84.15 125.81 L 84.15 125.81 L 87.08 125.91 L 90.02 125.93 L 90.86 125.81 L 92.95 125.48 L 95.88 123.89 L 96.67 122.91 L 97.60 120.00 L 98.07 117.10 L 98.41 114.20 L 98.81 112.68 L 99.24 111.30 L 100.03 108.39 L 100.13 105.49 L 98.81 102.68 L 98.75 102.59 L 95.88 100.09 L 95.36 99.69 L 92.95 97.23 L 92.45 96.78 L 91.13 93.88 L 90.02 92.66 L 87.87 90.98 Z" style="fill-rule: evenodd; fill: #FFD92F; stroke-width: 1.07; stroke: none;"/>
  </g>
  <g clip-path="url(#cpMC4wMHwxMjQuNDR8MC4xNHwxNDQuMDA=)"/>
  <g clip-path="url(#cpMC4wMHwxMjQuNDR8MC4wMHwxNDQuMDA=)"/>
  <g clip-path="url(#cpMC4wMHwxMjQuNDR8MC4xNHwxNDQuMDA=)"/>
  <g clip-path="url(#cpMC4wMHwxMjQuNDR8MC4wMHwxNDQuMDA=)"/>
  <g clip-path="url(#cpMC4wMHwxMjQuNDR8MC4xNHwxNDQuMDA=)"/>
  <g clip-path="url(#cpMC4wMHwxMjQuNDR8MC4wMHwxNDQuMDA=)"/>
  <g clip-path="url(#cpMC4wMHwxMjQuNDR8MC4xNHwxNDQuMDA=)"/>
  <g clip-path="url(#cpMC4wMHwxMjQuNDR8MC4wMHwxNDQuMDA=)"/>
  <g clip-path="url(#cpMC4wMHwxMjQuNDR8MC4xNHwxNDQuMDA=)"/>
  <g clip-path="url(#cpMC4wMHwxMjQuNDR8MC4wMHwxNDQuMDA=)"/>
  <g clip-path="url(#cpMC4wMHwxMjQuNDR8MC4xNHwxNDQuMDA=)"/>
  <g clip-path="url(#cpMC4wMHwxMjQuNDR8MC4wMHwxNDQuMDA=)"/>
  <g clip-path="url(#cpMC4wMHwxMjQuNDR8MC4xNHwxNDQuMDA=)"/>
  <g clip-path="url(#cpMC4wMHwxMjQuNDR8MC4wMHwxNDQuMDA=)"/>
  <g clip-path="url(#cpMC4wMHwxMjQuNDR8MC4xNHwxNDQuMDA=)"/>
  <g clip-path="url(#cpMC4wMHwxMjQuNDR8MC4wMHwxNDQuMDA=)"/>
  <g clip-path="url(#cpMC4wMHwxMjQuNDR8MC4xNHwxNDQuMDA=)"/>
  <g clip-path="url(#cpMC4wMHwxMjQuNDR8MC4wMHwxNDQuMDA=)"/>
  <g clip-path="url(#cpMC4wMHwxMjQuNDR8MC4xNHwxNDQuMDA=)"/>
  <g clip-path="url(#cpMC4wMHwxMjQuNDR8MC4wMHwxNDQuMDA=)"/>
  <g clip-path="url(#cpMC4wMHwxMjQuNDR8MC4xNHwxNDQuMDA=)"/>
  <g clip-path="url(#cpMC4wMHwxMjQuNDR8MC4wMHwxNDQuMDA=)"/>
  <g clip-path="url(#cpMC4wMHwxMjQuNDR8MC4xNHwxNDQuMDA=)"/>
  <g clip-path="url(#cpMC4wMHwxMjQuNDR8MC4wMHwxNDQuMDA=)"/>
  <g clip-path="url(#cpMC4wMHwxMjQuNDR8MC4xNHwxNDQuMDA=)"/>
  <g clip-path="url(#cpMC4wMHwxMjQuNDR8MC4wMHwxNDQuMDA=)"/>
  <g clip-path="url(#cpMC4wMHwxMjQuNDR8MC4xNHwxNDQuMDA=)"/>
  <g clip-path="url(#cpMC4wMHwxMjQuNDR8MC4wMHwxNDQuMDA=)"/>
  <g clip-path="url(#cpMC4wMHwxMjQuNDR8MC4xNHwxNDQuMDA=)"/>
  <g clip-path="url(#cpMC4wMHwxMjQuNDR8MC4wMHwxNDQuMDA=)"/>
  <g clip-path="url(#cpMC4wMHwxMjQuNDR8MC4xNHwxNDQuMDA=)"/>
  <g clip-path="url(#cpMC4wMHwxMjQuNDR8MC4wMHwxNDQuMDA=)"/>
  <g clip-path="url(#cpMC4wMHwxMjQuNDR8MC4xNHwxNDQuMDA=)">
    <polygon points="1.08,36.81 1.08,107.33 62.15,142.59 123.22,107.33 123.22,36.81 62.15,1.55 1.08,36.81 " style="stroke-width: 4.27; stroke: #FFFFFF; fill: none;"/>
    <path d="M 14.32 73.80 L 14.32 73.80 L 14.34 73.18 L 14.37 72.59 L 14.43 72.04 L 14.51 71.51 L 14.61 71.02 L 14.74 70.56 L 14.89 70.13 L 15.06 69.73 L 15.26 69.36 L 15.47 69.02 L 15.47 69.02 L 15.71 68.71 L 15.98 68.43 L 16.26 68.19 L 16.56 67.98 L 16.89 67.80 L 17.24 67.65 L 17.61 67.54 L 17.99 67.46 L 18.41 67.41 L 18.84 67.39 L 18.84 67.39 L 19.24 67.41 L 19.62 67.46 L 19.99 67.55 L 20.33 67.68 L 20.65 67.83 L 20.96 68.03 L 21.24 68.26 L 21.51 68.52 L 21.75 68.82 L 21.98 69.16 L 22.09 67.64 L 24.09 67.64 L 24.09 81.30 L 24.09 81.30 L 24.08 81.79 L 24.04 82.26 L 23.97 82.70 L 23.88 83.12 L 23.77 83.52 L 23.63 83.89 L 23.46 84.24 L 23.26 84.57 L 23.05 84.87 L 22.80 85.15 L 22.80 85.15 L 22.53 85.41 L 22.25 85.64 L 21.94 85.84 L 21.61 86.01 L 21.26 86.16 L 20.89 86.28 L 20.50 86.38 L 20.09 86.45 L 19.66 86.49 L 19.21 86.50 L 19.21 86.50 L 19.01 86.49 L 18.80 86.48 L 18.59 86.45 L 18.37 86.42 L 18.15 86.37 L 17.92 86.32 L 17.69 86.25 L 17.45 86.18 L 17.21 86.09 L 16.96 86.00 L 16.96 86.00 L 16.72 85.90 L 16.49 85.79 L 16.27 85.69 L 16.07 85.57 L 15.88 85.45 L 15.70 85.33 L 15.53 85.20 L 15.37 85.07 L 15.23 84.93 L 15.10 84.79 L 16.00 83.26 L 16.00 83.26 L 16.28 83.52 L 16.56 83.75 L 16.85 83.95 L 17.15 84.13 L 17.45 84.27 L 17.75 84.40 L 18.07 84.49 L 18.38 84.56 L 18.71 84.60 L 19.04 84.61 L 19.04 84.61 L 19.56 84.58 L 20.04 84.49 L 20.45 84.34 L 20.82 84.13 L 21.13 83.86 L 21.39 83.53 L 21.59 83.13 L 21.74 82.68 L 21.83 82.17 L 21.88 81.60 L 21.88 79.83 L 21.88 79.83 L 21.65 80.14 L 21.41 80.41 L 21.15 80.64 L 20.87 80.85 L 20.58 81.03 L 20.26 81.17 L 19.93 81.28 L 19.58 81.36 L 19.21 81.41 L 18.83 81.42 L 18.83 81.42 L 18.41 81.41 L 18.02 81.36 L 17.65 81.28 L 17.29 81.17 L 16.96 81.03 L 16.64 80.86 L 16.34 80.65 L 16.06 80.41 L 15.79 80.15 L 15.55 79.85 L 15.55 79.85 L 15.33 79.52 L 15.12 79.16 L 14.95 78.77 L 14.79 78.36 L 14.66 77.92 L 14.54 77.45 L 14.46 76.95 L 14.39 76.43 L 14.35 75.87 L 14.32 75.30 L 14.32 73.80 ZM 16.54 75.06 L 16.54 75.06 L 16.54 75.50 L 16.56 75.92 L 16.60 76.32 L 16.64 76.69 L 16.70 77.03 L 16.78 77.36 L 16.86 77.66 L 16.96 77.93 L 17.07 78.18 L 17.20 78.41 L 17.20 78.41 L 17.34 78.61 L 17.50 78.79 L 17.68 78.95 L 17.88 79.09 L 18.09 79.21 L 18.32 79.30 L 18.56 79.38 L 18.82 79.43 L 19.10 79.46 L 19.40 79.47 L 19.40 79.47 L 19.72 79.46 L 20.03 79.40 L 20.32 79.32 L 20.59 79.20 L 20.84 79.05 L 21.08 78.86 L 21.31 78.65 L 21.51 78.39 L 21.70 78.11 L 21.88 77.78 L 21.88 71.02 L 21.88 71.02 L 21.70 70.70 L 21.50 70.42 L 21.29 70.17 L 21.07 69.96 L 20.83 69.77 L 20.58 69.62 L 20.31 69.51 L 20.03 69.42 L 19.74 69.37 L 19.43 69.36 L 19.43 69.36 L 19.13 69.37 L 18.85 69.40 L 18.59 69.45 L 18.34 69.53 L 18.11 69.63 L 17.90 69.74 L 17.71 69.88 L 17.53 70.05 L 17.37 70.23 L 17.22 70.43 L 17.22 70.43 L 17.10 70.66 L 16.98 70.90 L 16.88 71.17 L 16.79 71.47 L 16.72 71.78 L 16.65 72.12 L 16.60 72.48 L 16.57 72.87 L 16.55 73.28 L 16.54 73.71 L 16.54 75.06 Z" style="fill-rule: nonzero; fill: #FFFFFF; stroke-width: 0.75; stroke: none;"/>
    <path d="M 26.94 73.80 L 26.94 73.80 L 26.95 73.18 L 26.99 72.59 L 27.04 72.04 L 27.12 71.51 L 27.23 71.02 L 27.35 70.56 L 27.50 70.13 L 27.68 69.73 L 27.87 69.36 L 28.09 69.02 L 28.09 69.02 L 28.33 68.71 L 28.59 68.43 L 28.88 68.19 L 29.18 67.98 L 29.51 67.80 L 29.85 67.65 L 30.22 67.54 L 30.61 67.46 L 31.02 67.41 L 31.45 67.39 L 31.45 67.39 L 31.86 67.41 L 32.24 67.46 L 32.60 67.55 L 32.95 67.68 L 33.27 67.83 L 33.57 68.03 L 33.86 68.26 L 34.12 68.52 L 34.37 68.82 L 34.59 69.16 L 34.70 67.64 L 36.71 67.64 L 36.71 81.30 L 36.71 81.30 L 36.69 81.79 L 36.65 82.26 L 36.59 82.70 L 36.50 83.12 L 36.38 83.52 L 36.24 83.89 L 36.07 84.24 L 35.88 84.57 L 35.66 84.87 L 35.42 85.15 L 35.42 85.15 L 35.15 85.41 L 34.86 85.64 L 34.55 85.84 L 34.23 86.01 L 33.88 86.16 L 33.51 86.28 L 33.12 86.38 L 32.71 86.45 L 32.28 86.49 L 31.83 86.50 L 31.83 86.50 L 31.63 86.49 L 31.42 86.48 L 31.21 86.45 L 30.99 86.42 L 30.77 86.37 L 30.54 86.32 L 30.31 86.25 L 30.07 86.18 L 29.83 86.09 L 29.58 86.00 L 29.58 86.00 L 29.34 85.90 L 29.11 85.79 L 28.89 85.69 L 28.69 85.57 L 28.49 85.45 L 28.31 85.33 L 28.15 85.20 L 27.99 85.07 L 27.85 84.93 L 27.72 84.79 L 28.62 83.26 L 28.62 83.26 L 28.89 83.52 L 29.18 83.75 L 29.47 83.95 L 29.76 84.13 L 30.06 84.27 L 30.37 84.40 L 30.68 84.49 L 31.00 84.56 L 31.32 84.60 L 31.65 84.61 L 31.65 84.61 L 32.18 84.58 L 32.65 84.49 L 33.07 84.34 L 33.43 84.13 L 33.75 83.86 L 34.00 83.53 L 34.21 83.13 L 34.35 82.68 L 34.45 82.17 L 34.49 81.60 L 34.49 79.83 L 34.49 79.83 L 34.27 80.14 L 34.03 80.41 L 33.77 80.64 L 33.49 80.85 L 33.19 81.03 L 32.88 81.17 L 32.55 81.28 L 32.20 81.36 L 31.83 81.41 L 31.44 81.42 L 31.44 81.42 L 31.03 81.41 L 30.64 81.36 L 30.26 81.28 L 29.91 81.17 L 29.57 81.03 L 29.25 80.86 L 28.95 80.65 L 28.67 80.41 L 28.41 80.15 L 28.17 79.85 L 28.17 79.85 L 27.94 79.52 L 27.74 79.16 L 27.56 78.77 L 27.41 78.36 L 27.27 77.92 L 27.16 77.45 L 27.07 76.95 L 27.01 76.43 L 26.96 75.87 L 26.94 75.30 L 26.94 73.80 ZM 29.15 75.06 L 29.15 75.06 L 29.16 75.50 L 29.18 75.92 L 29.21 76.32 L 29.26 76.69 L 29.32 77.03 L 29.39 77.36 L 29.48 77.66 L 29.58 77.93 L 29.69 78.18 L 29.82 78.41 L 29.82 78.41 L 29.96 78.61 L 30.12 78.79 L 30.30 78.95 L 30.49 79.09 L 30.70 79.21 L 30.93 79.30 L 31.18 79.38 L 31.44 79.43 L 31.72 79.46 L 32.02 79.47 L 32.02 79.47 L 32.34 79.46 L 32.64 79.40 L 32.93 79.32 L 33.20 79.20 L 33.46 79.05 L 33.70 78.86 L 33.92 78.65 L 34.13 78.39 L 34.32 78.11 L 34.49 77.78 L 34.49 71.02 L 34.49 71.02 L 34.31 70.70 L 34.12 70.42 L 33.91 70.17 L 33.69 69.96 L 33.45 69.77 L 33.20 69.62 L 32.93 69.51 L 32.65 69.42 L 32.35 69.37 L 32.04 69.36 L 32.04 69.36 L 31.74 69.37 L 31.47 69.40 L 31.20 69.45 L 30.96 69.53 L 30.73 69.63 L 30.52 69.74 L 30.32 69.88 L 30.14 70.05 L 29.98 70.23 L 29.84 70.43 L 29.84 70.43 L 29.71 70.66 L 29.60 70.90 L 29.50 71.17 L 29.41 71.47 L 29.33 71.78 L 29.27 72.12 L 29.22 72.48 L 29.18 72.87 L 29.16 73.28 L 29.15 73.71 L 29.15 75.06 Z" style="fill-rule: nonzero; fill: #FFFFFF; stroke-width: 0.75; stroke: none;"/>
    <path d="M 39.53 73.80 L 39.53 73.80 L 39.54 73.19 L 39.58 72.60 L 39.64 72.05 L 39.72 71.53 L 39.82 71.04 L 39.95 70.58 L 40.10 70.15 L 40.28 69.75 L 40.47 69.37 L 40.69 69.03 L 40.69 69.03 L 40.94 68.72 L 41.20 68.44 L 41.49 68.20 L 41.80 67.98 L 42.12 67.80 L 42.47 67.66 L 42.84 67.54 L 43.22 67.46 L 43.63 67.41 L 44.06 67.39 L 44.06 67.39 L 44.44 67.41 L 44.80 67.46 L 45.14 67.54 L 45.47 67.65 L 45.78 67.79 L 46.08 67.96 L 46.35 68.17 L 46.61 68.40 L 46.86 68.67 L 47.08 68.97 L 47.08 61.97 L 49.30 61.97 L 49.30 81.17 L 47.27 81.17 L 47.16 79.72 L 47.16 79.72 L 46.93 80.05 L 46.69 80.33 L 46.42 80.59 L 46.14 80.81 L 45.84 81.00 L 45.52 81.15 L 45.18 81.27 L 44.82 81.35 L 44.44 81.41 L 44.05 81.42 L 44.05 81.42 L 43.63 81.41 L 43.24 81.36 L 42.87 81.28 L 42.51 81.16 L 42.17 81.02 L 41.85 80.84 L 41.55 80.63 L 41.26 80.38 L 40.99 80.11 L 40.74 79.80 L 40.74 79.80 L 40.52 79.46 L 40.32 79.09 L 40.14 78.69 L 39.98 78.27 L 39.85 77.82 L 39.74 77.35 L 39.65 76.85 L 39.59 76.32 L 39.55 75.77 L 39.53 75.18 L 39.53 73.80 ZM 41.74 75.06 L 41.74 75.06 L 41.75 75.50 L 41.77 75.92 L 41.81 76.32 L 41.85 76.69 L 41.91 77.03 L 41.99 77.36 L 42.08 77.66 L 42.18 77.93 L 42.29 78.18 L 42.42 78.41 L 42.42 78.41 L 42.56 78.61 L 42.72 78.79 L 42.90 78.95 L 43.10 79.09 L 43.31 79.21 L 43.54 79.30 L 43.78 79.38 L 44.04 79.43 L 44.32 79.46 L 44.62 79.47 L 44.62 79.47 L 44.94 79.46 L 45.25 79.41 L 45.54 79.32 L 45.81 79.21 L 46.06 79.06 L 46.30 78.87 L 46.52 78.66 L 46.72 78.41 L 46.91 78.13 L 47.08 77.81 L 47.08 70.98 L 47.08 70.98 L 46.91 70.67 L 46.71 70.40 L 46.51 70.15 L 46.28 69.94 L 46.05 69.76 L 45.79 69.62 L 45.53 69.50 L 45.24 69.42 L 44.95 69.37 L 44.63 69.36 L 44.63 69.36 L 44.34 69.37 L 44.06 69.40 L 43.79 69.45 L 43.55 69.53 L 43.32 69.63 L 43.11 69.74 L 42.91 69.88 L 42.74 70.05 L 42.58 70.23 L 42.43 70.43 L 42.43 70.43 L 42.30 70.66 L 42.19 70.90 L 42.09 71.17 L 42.00 71.47 L 41.92 71.78 L 41.86 72.12 L 41.81 72.48 L 41.78 72.87 L 41.75 73.28 L 41.74 73.71 L 41.74 75.06 Z" style="fill-rule: nonzero; fill: #FFFFFF; stroke-width: 0.75; stroke: none;"/>
    <path d="M 57.54 81.42 L 57.54 81.42 L 57.04 81.41 L 56.57 81.36 L 56.13 81.29 L 55.70 81.18 L 55.30 81.05 L 54.93 80.88 L 54.58 80.69 L 54.25 80.46 L 53.94 80.21 L 53.66 79.92 L 53.66 79.92 L 53.40 79.61 L 53.17 79.26 L 52.97 78.89 L 52.79 78.49 L 52.64 78.06 L 52.52 77.60 L 52.42 77.12 L 52.35 76.61 L 52.30 76.06 L 52.28 75.50 L 52.28 73.86 L 52.28 73.86 L 52.30 73.27 L 52.34 72.70 L 52.40 72.16 L 52.50 71.65 L 52.61 71.16 L 52.76 70.70 L 52.93 70.27 L 53.13 69.86 L 53.35 69.48 L 53.60 69.12 L 53.60 69.12 L 53.87 68.79 L 54.17 68.50 L 54.49 68.24 L 54.82 68.01 L 55.18 67.83 L 55.56 67.67 L 55.96 67.55 L 56.38 67.46 L 56.82 67.41 L 57.29 67.39 L 57.29 67.39 L 57.75 67.41 L 58.19 67.45 L 58.60 67.53 L 58.99 67.64 L 59.36 67.77 L 59.71 67.94 L 60.02 68.14 L 60.32 68.36 L 60.59 68.62 L 60.84 68.91 L 60.84 68.91 L 61.06 69.23 L 61.26 69.58 L 61.44 69.97 L 61.59 70.39 L 61.73 70.84 L 61.83 71.33 L 61.92 71.85 L 61.98 72.41 L 62.02 73.00 L 62.04 73.62 L 62.04 75.07 L 54.49 75.07 L 54.49 75.38 L 54.49 75.38 L 54.49 75.81 L 54.52 76.21 L 54.56 76.58 L 54.62 76.93 L 54.69 77.26 L 54.78 77.57 L 54.88 77.85 L 55.01 78.10 L 55.14 78.34 L 55.30 78.55 L 55.30 78.55 L 55.47 78.73 L 55.66 78.90 L 55.86 79.05 L 56.07 79.18 L 56.30 79.29 L 56.55 79.38 L 56.80 79.45 L 57.07 79.50 L 57.36 79.52 L 57.66 79.53 L 57.66 79.53 L 57.85 79.53 L 58.04 79.52 L 58.23 79.50 L 58.40 79.48 L 58.58 79.44 L 58.75 79.40 L 58.91 79.36 L 59.07 79.30 L 59.22 79.24 L 59.37 79.17 L 59.37 79.17 L 59.52 79.09 L 59.67 79.01 L 59.82 78.91 L 59.96 78.80 L 60.10 78.69 L 60.24 78.57 L 60.38 78.44 L 60.51 78.30 L 60.64 78.15 L 60.77 78.00 L 61.93 79.40 L 61.93 79.40 L 61.62 79.78 L 61.29 80.13 L 60.93 80.43 L 60.53 80.69 L 60.11 80.92 L 59.66 81.10 L 59.17 81.24 L 58.66 81.34 L 58.11 81.40 L 57.54 81.42 ZM 57.29 69.29 L 57.29 69.29 L 57.02 69.30 L 56.76 69.33 L 56.53 69.38 L 56.30 69.45 L 56.09 69.53 L 55.89 69.64 L 55.71 69.76 L 55.54 69.90 L 55.39 70.06 L 55.25 70.24 L 55.25 70.24 L 55.12 70.44 L 55.01 70.66 L 54.90 70.90 L 54.81 71.16 L 54.73 71.44 L 54.66 71.75 L 54.60 72.07 L 54.56 72.42 L 54.52 72.78 L 54.50 73.17 L 59.82 73.17 L 59.82 72.87 L 59.82 72.87 L 59.80 72.50 L 59.77 72.14 L 59.72 71.81 L 59.67 71.51 L 59.61 71.22 L 59.53 70.96 L 59.44 70.71 L 59.35 70.49 L 59.24 70.30 L 59.12 70.12 L 59.12 70.12 L 59.00 69.96 L 58.86 69.82 L 58.71 69.70 L 58.54 69.59 L 58.36 69.50 L 58.17 69.43 L 57.97 69.37 L 57.76 69.33 L 57.53 69.30 L 57.29 69.29 Z" style="fill-rule: nonzero; fill: #FFFFFF; stroke-width: 0.75; stroke: none;"/>
    <path d="M 66.78 67.64 L 66.84 69.11 L 66.84 69.11 L 67.10 68.78 L 67.38 68.49 L 67.68 68.23 L 67.98 68.01 L 68.31 67.82 L 68.64 67.67 L 68.99 67.55 L 69.36 67.46 L 69.73 67.41 L 70.13 67.39 L 70.13 67.39 L 70.81 67.44 L 71.42 67.59 L 71.96 67.82 L 72.43 68.16 L 72.83 68.59 L 73.16 69.12 L 73.42 69.74 L 73.60 70.46 L 73.72 71.27 L 73.77 72.18 L 73.77 81.17 L 71.57 81.17 L 71.57 72.28 L 71.57 72.28 L 71.56 71.97 L 71.54 71.68 L 71.52 71.41 L 71.48 71.16 L 71.43 70.93 L 71.37 70.71 L 71.30 70.51 L 71.22 70.33 L 71.13 70.17 L 71.03 70.03 L 71.03 70.03 L 70.92 69.90 L 70.80 69.79 L 70.66 69.69 L 70.52 69.60 L 70.37 69.53 L 70.20 69.46 L 70.03 69.42 L 69.84 69.38 L 69.65 69.36 L 69.44 69.36 L 69.44 69.36 L 69.28 69.36 L 69.12 69.38 L 68.96 69.41 L 68.81 69.44 L 68.66 69.49 L 68.51 69.55 L 68.36 69.63 L 68.22 69.71 L 68.09 69.80 L 67.95 69.91 L 67.95 69.91 L 67.82 70.02 L 67.70 70.14 L 67.58 70.27 L 67.47 70.40 L 67.36 70.54 L 67.26 70.69 L 67.16 70.84 L 67.07 71.00 L 66.98 71.17 L 66.90 71.34 L 66.90 81.17 L 64.69 81.17 L 64.69 67.64 L 66.78 67.64 Z" style="fill-rule: nonzero; fill: #FFFFFF; stroke-width: 0.75; stroke: none;"/>
    <path d="M 83.66 77.71 L 83.66 77.71 L 83.65 77.57 L 83.64 77.43 L 83.61 77.30 L 83.57 77.17 L 83.52 77.05 L 83.46 76.93 L 83.39 76.81 L 83.31 76.70 L 83.22 76.59 L 83.12 76.48 L 83.12 76.48 L 83.00 76.38 L 82.86 76.27 L 82.71 76.16 L 82.53 76.05 L 82.33 75.93 L 82.11 75.81 L 81.88 75.68 L 81.62 75.55 L 81.34 75.42 L 81.04 75.28 L 81.04 75.28 L 80.70 75.14 L 80.37 75.00 L 80.07 74.86 L 79.78 74.73 L 79.52 74.60 L 79.28 74.47 L 79.05 74.35 L 78.85 74.24 L 78.68 74.13 L 78.52 74.02 L 78.52 74.02 L 78.38 73.91 L 78.24 73.81 L 78.12 73.69 L 78.00 73.58 L 77.88 73.46 L 77.78 73.34 L 77.68 73.22 L 77.59 73.09 L 77.51 72.96 L 77.43 72.83 L 77.43 72.83 L 77.36 72.70 L 77.30 72.55 L 77.24 72.41 L 77.20 72.25 L 77.16 72.10 L 77.13 71.93 L 77.10 71.77 L 77.08 71.59 L 77.07 71.41 L 77.07 71.23 L 77.07 71.23 L 77.08 70.91 L 77.12 70.59 L 77.18 70.29 L 77.26 70.00 L 77.37 69.72 L 77.50 69.45 L 77.66 69.20 L 77.84 68.95 L 78.04 68.72 L 78.27 68.49 L 78.27 68.49 L 78.52 68.29 L 78.78 68.10 L 79.05 67.93 L 79.34 67.79 L 79.65 67.67 L 79.96 67.57 L 80.29 67.49 L 80.63 67.44 L 80.99 67.40 L 81.36 67.39 L 81.36 67.39 L 81.74 67.41 L 82.12 67.44 L 82.47 67.50 L 82.81 67.58 L 83.14 67.68 L 83.45 67.81 L 83.74 67.96 L 84.02 68.13 L 84.28 68.33 L 84.53 68.54 L 84.53 68.54 L 84.76 68.78 L 84.96 69.03 L 85.14 69.29 L 85.30 69.57 L 85.43 69.86 L 85.54 70.16 L 85.62 70.47 L 85.68 70.80 L 85.72 71.14 L 85.73 71.49 L 83.53 71.49 L 83.53 71.49 L 83.53 71.32 L 83.51 71.14 L 83.48 70.97 L 83.43 70.81 L 83.38 70.65 L 83.31 70.50 L 83.23 70.35 L 83.14 70.21 L 83.04 70.07 L 82.92 69.94 L 82.92 69.94 L 82.79 69.82 L 82.66 69.71 L 82.52 69.61 L 82.37 69.53 L 82.22 69.46 L 82.06 69.40 L 81.90 69.35 L 81.72 69.32 L 81.54 69.30 L 81.36 69.29 L 81.36 69.29 L 81.17 69.30 L 80.98 69.31 L 80.81 69.34 L 80.64 69.38 L 80.48 69.42 L 80.33 69.48 L 80.19 69.55 L 80.06 69.62 L 79.93 69.71 L 79.82 69.81 L 79.82 69.81 L 79.71 69.91 L 79.62 70.02 L 79.54 70.14 L 79.47 70.26 L 79.41 70.39 L 79.36 70.53 L 79.32 70.68 L 79.29 70.83 L 79.27 70.99 L 79.27 71.16 L 79.27 71.16 L 79.27 71.29 L 79.28 71.42 L 79.30 71.54 L 79.33 71.66 L 79.37 71.77 L 79.41 71.87 L 79.46 71.97 L 79.52 72.07 L 79.59 72.16 L 79.67 72.25 L 79.67 72.25 L 79.76 72.33 L 79.88 72.42 L 80.02 72.52 L 80.18 72.62 L 80.37 72.72 L 80.57 72.83 L 80.80 72.95 L 81.06 73.07 L 81.33 73.20 L 81.63 73.33 L 81.63 73.33 L 82.11 73.53 L 82.55 73.72 L 82.97 73.91 L 83.35 74.10 L 83.70 74.29 L 84.02 74.47 L 84.31 74.66 L 84.56 74.85 L 84.79 75.04 L 84.98 75.22 L 84.98 75.22 L 85.15 75.41 L 85.30 75.61 L 85.43 75.81 L 85.55 76.03 L 85.65 76.26 L 85.73 76.50 L 85.79 76.74 L 85.83 77.00 L 85.86 77.27 L 85.87 77.55 L 85.87 77.55 L 85.86 77.89 L 85.82 78.22 L 85.76 78.54 L 85.68 78.85 L 85.57 79.13 L 85.43 79.41 L 85.28 79.67 L 85.09 79.92 L 84.89 80.15 L 84.66 80.37 L 84.66 80.37 L 84.41 80.57 L 84.14 80.75 L 83.85 80.91 L 83.55 81.04 L 83.24 81.16 L 82.90 81.25 L 82.55 81.33 L 82.19 81.38 L 81.81 81.41 L 81.41 81.42 L 81.41 81.42 L 80.99 81.41 L 80.59 81.37 L 80.21 81.31 L 79.84 81.23 L 79.49 81.12 L 79.16 80.99 L 78.84 80.83 L 78.54 80.65 L 78.25 80.44 L 77.98 80.21 L 77.98 80.21 L 77.73 79.96 L 77.51 79.70 L 77.31 79.42 L 77.14 79.14 L 77.00 78.83 L 76.88 78.52 L 76.79 78.19 L 76.72 77.85 L 76.68 77.50 L 76.67 77.13 L 78.89 77.13 L 78.89 77.13 L 78.91 77.35 L 78.93 77.56 L 78.97 77.77 L 79.02 77.96 L 79.08 78.14 L 79.16 78.31 L 79.25 78.47 L 79.34 78.62 L 79.46 78.76 L 79.58 78.90 L 79.58 78.90 L 79.72 79.02 L 79.86 79.13 L 80.02 79.22 L 80.18 79.31 L 80.36 79.38 L 80.55 79.43 L 80.75 79.48 L 80.96 79.51 L 81.18 79.53 L 81.41 79.53 L 81.41 79.53 L 81.62 79.53 L 81.83 79.52 L 82.02 79.49 L 82.20 79.46 L 82.37 79.41 L 82.54 79.36 L 82.69 79.30 L 82.83 79.22 L 82.96 79.14 L 83.08 79.05 L 83.08 79.05 L 83.19 78.94 L 83.29 78.83 L 83.37 78.72 L 83.45 78.59 L 83.51 78.46 L 83.56 78.33 L 83.60 78.18 L 83.63 78.03 L 83.65 77.87 L 83.66 77.71 Z" style="fill-rule: nonzero; fill: #FFFFFF; stroke-width: 0.75; stroke: none;"/>
    <path d="M 91.13 81.17 L 88.92 81.17 L 88.92 67.64 L 91.13 67.64 L 91.13 81.17 ZM 91.31 64.06 L 91.31 64.06 L 91.31 64.17 L 91.30 64.27 L 91.28 64.38 L 91.26 64.48 L 91.23 64.57 L 91.20 64.66 L 91.16 64.75 L 91.11 64.84 L 91.06 64.92 L 91.00 64.99 L 91.00 64.99 L 90.93 65.06 L 90.86 65.13 L 90.78 65.18 L 90.69 65.23 L 90.60 65.27 L 90.50 65.31 L 90.40 65.33 L 90.29 65.35 L 90.17 65.36 L 90.05 65.37 L 90.05 65.37 L 89.92 65.36 L 89.81 65.35 L 89.70 65.33 L 89.60 65.31 L 89.50 65.27 L 89.41 65.23 L 89.32 65.18 L 89.25 65.13 L 89.17 65.06 L 89.11 64.99 L 89.11 64.99 L 89.05 64.92 L 89.00 64.84 L 88.95 64.75 L 88.91 64.66 L 88.87 64.57 L 88.85 64.48 L 88.82 64.38 L 88.81 64.27 L 88.80 64.17 L 88.80 64.06 L 88.80 64.06 L 88.80 63.94 L 88.81 63.84 L 88.82 63.73 L 88.85 63.63 L 88.87 63.54 L 88.91 63.44 L 88.95 63.35 L 89.00 63.27 L 89.05 63.18 L 89.11 63.11 L 89.11 63.11 L 89.17 63.03 L 89.25 62.97 L 89.32 62.91 L 89.41 62.86 L 89.50 62.81 L 89.60 62.78 L 89.70 62.75 L 89.81 62.73 L 89.92 62.72 L 90.05 62.72 L 90.05 62.72 L 90.17 62.72 L 90.28 62.73 L 90.39 62.75 L 90.50 62.78 L 90.59 62.82 L 90.68 62.86 L 90.77 62.91 L 90.85 62.97 L 90.92 63.04 L 90.98 63.12 L 90.98 63.12 L 91.05 63.20 L 91.10 63.28 L 91.15 63.36 L 91.19 63.45 L 91.23 63.55 L 91.26 63.64 L 91.28 63.74 L 91.30 63.84 L 91.31 63.95 L 91.31 64.06 Z" style="fill-rule: nonzero; fill: #FFFFFF; stroke-width: 0.75; stroke: none;"/>
    <path d="M 97.51 64.37 L 97.51 67.64 L 99.55 67.64 L 99.55 69.43 L 97.51 69.43 L 97.51 77.82 L 97.51 77.82 L 97.51 77.98 L 97.52 78.13 L 97.53 78.27 L 97.55 78.40 L 97.58 78.53 L 97.61 78.64 L 97.64 78.75 L 97.68 78.85 L 97.72 78.95 L 97.77 79.03 L 97.77 79.03 L 97.83 79.11 L 97.89 79.18 L 97.96 79.25 L 98.04 79.30 L 98.13 79.34 L 98.22 79.38 L 98.32 79.41 L 98.43 79.43 L 98.55 79.44 L 98.67 79.45 L 98.67 79.45 L 98.76 79.45 L 98.85 79.44 L 98.94 79.43 L 99.03 79.42 L 99.11 79.41 L 99.20 79.39 L 99.29 79.37 L 99.38 79.35 L 99.47 79.33 L 99.56 79.30 L 99.54 81.17 L 99.54 81.17 L 99.39 81.22 L 99.23 81.26 L 99.08 81.30 L 98.93 81.33 L 98.78 81.36 L 98.62 81.38 L 98.47 81.40 L 98.31 81.41 L 98.16 81.42 L 98.00 81.42 L 98.00 81.42 L 97.74 81.41 L 97.50 81.39 L 97.27 81.34 L 97.05 81.27 L 96.84 81.19 L 96.65 81.09 L 96.47 80.96 L 96.30 80.82 L 96.14 80.66 L 96.00 80.49 L 96.00 80.49 L 95.87 80.29 L 95.75 80.08 L 95.65 79.85 L 95.56 79.61 L 95.48 79.35 L 95.42 79.08 L 95.37 78.79 L 95.34 78.49 L 95.32 78.17 L 95.31 77.83 L 95.31 69.43 L 93.25 69.43 L 93.25 67.64 L 95.31 67.64 L 95.31 64.37 L 97.51 64.37 Z" style="fill-rule: nonzero; fill: #FFFFFF; stroke-width: 0.75; stroke: none;"/>
    <path d="M 105.88 77.50 L 108.34 67.64 L 110.69 67.64 L 106.26 83.09 L 106.26 83.09 L 106.16 83.43 L 106.05 83.75 L 105.93 84.05 L 105.80 84.34 L 105.66 84.61 L 105.51 84.87 L 105.36 85.11 L 105.20 85.33 L 105.03 85.54 L 104.85 85.72 L 104.85 85.72 L 104.67 85.90 L 104.48 86.05 L 104.28 86.19 L 104.08 86.31 L 103.88 86.41 L 103.66 86.49 L 103.45 86.55 L 103.23 86.60 L 103.00 86.63 L 102.77 86.64 L 102.77 86.64 L 102.68 86.63 L 102.58 86.63 L 102.48 86.62 L 102.37 86.60 L 102.26 86.59 L 102.14 86.56 L 102.02 86.54 L 101.89 86.51 L 101.76 86.47 L 101.62 86.44 L 101.62 84.56 L 102.11 84.61 L 102.11 84.61 L 102.30 84.61 L 102.48 84.59 L 102.65 84.57 L 102.81 84.54 L 102.97 84.50 L 103.11 84.44 L 103.25 84.38 L 103.38 84.32 L 103.50 84.24 L 103.61 84.15 L 103.61 84.15 L 103.72 84.05 L 103.82 83.94 L 103.92 83.82 L 104.02 83.68 L 104.11 83.53 L 104.20 83.37 L 104.28 83.19 L 104.36 83.00 L 104.43 82.79 L 104.50 82.57 L 104.94 81.06 L 100.96 67.64 L 103.37 67.64 L 105.88 77.50 Z" style="fill-rule: nonzero; fill: #FFFFFF; stroke-width: 0.75; stroke: none;"/>
    <polygon points="1.08,36.81 1.08,107.33 62.15,142.59 123.22,107.33 123.22,36.81 62.15,1.55 1.08,36.81 " style="stroke-width: 2.13; fill: none;"/>
  </g>
  <g clip-path="url(#cpMC4wMHwxMjQuNDR8MC4wMHwxNDQuMDA=)"/>
</svg>